<?xml version="1.0" encoding="UTF-8" standalone="no"?>
<svg
   width="100"
   height="100"
   viewBox="0 0 100 100"
   version="1.1"
   xmlns="http://www.w3.org/2000/svg"
   xmlns:svg="http://www.w3.org/2000/svg">
  <rect
     style="fill:#f05423;fill-opacity:1;stroke-width:3.07143"
     width="100"
     height="100"
     x="0"
     y="0"
     rx="10"
     ry="10" />
  <path
     d="m 68.888,50.501 c 0,10.43 -8.457,18.889 -18.889,18.889 -10.43,0 -18.889,-8.458 -18.889,-18.889 0,-10.43 8.458,-18.889 18.889,-18.889 10.431,0 18.889,8.458 18.889,18.889 z"
     style="fill:#ffffff;fill-opacity:1;fill-rule:nonzero;stroke:none;stroke-width:0.888889" />
  <path
     d="m 26.195,50.001 c 0,-2.857 0.484,-5.602 1.372,-8.159 h -8.03 v 16.318 h 8.03 c -0.888,-2.557 -1.372,-5.302 -1.372,-8.159 z"
     style="fill:#ffffff;fill-opacity:1;fill-rule:nonzero;stroke:none;stroke-width:0.888889" />
  <path
     d="m 71.804,58.16 h 8.031 V 41.842 h -8.031 c 0.889,2.557 1.373,5.301 1.373,8.159 0,2.857 -0.485,5.602 -1.373,8.159 z"
     style="fill:#ffffff;fill-opacity:1;fill-rule:nonzero;stroke:none;stroke-width:0.888889" />
  <path
     d="m 50.001,28.196 c 2.857,0 5.601,0.484 8.159,1.373 V 21.54 H 41.842 v 8.029 c 2.557,-0.889 5.301,-1.373 8.159,-1.373 z"
     style="fill:#ffffff;fill-opacity:1;fill-rule:nonzero;stroke:none;stroke-width:0.888889" />
  <path
     d="m 41.842,70.46 h 16.318 v -8.029 c -2.558,0.889 -5.302,1.373 -8.159,1.373 -2.858,0 -5.602,-0.484 -8.159,-1.373 z"
     style="fill:#ffffff;fill-opacity:1;fill-rule:nonzero;stroke:none;stroke-width:0.888889" />
</svg>